<svg width="98" height="106" viewBox="0 0 98 106" fill="none" xmlns="http://www.w3.org/2000/svg">
<path d="M87.2359 79.9714L71.7122 64.4487L82.7871 58.0519C83.2112 57.807 83.5578 57.4476 83.7872 57.0149C84.0166 56.5822 84.1194 56.0937 84.0841 55.6052C84.049 55.1168 83.8771 54.648 83.5879 54.2528C83.2987 53.8575 82.9041 53.5516 82.4491 53.3703L33.0625 33.672C32.5888 33.4829 32.0699 33.4368 31.5702 33.5395C31.0706 33.6421 30.612 33.8891 30.2512 34.2498C29.8905 34.6104 29.6434 35.0689 29.5407 35.5685C29.4379 36.0682 29.4839 36.5869 29.673 37.0607L49.3702 86.4483C49.5517 86.9032 49.8576 87.2978 50.2529 87.587C50.6482 87.8761 51.1169 88.0482 51.6054 88.0835C52.094 88.1187 52.5826 88.0158 53.0153 87.7864C53.448 87.557 53.8075 87.2104 54.0524 86.7863L60.4487 75.7124L75.9719 91.2355C76.214 91.4778 76.5015 91.6701 76.818 91.8013C77.1345 91.9325 77.4737 92 77.8163 92C78.1589 92 78.4982 91.9325 78.8147 91.8013C79.1312 91.6701 79.4187 91.4778 79.6608 91.2355L87.2359 83.6603C88.2547 82.6416 88.2547 80.9902 87.2359 79.9714ZM77.8165 85.7027L61.7347 69.6208C61.4518 69.3379 61.1076 69.1238 60.7287 68.9951C60.3498 68.8665 59.9464 68.8267 59.5497 68.8789C59.153 68.9311 58.7736 69.0739 58.4409 69.2962C58.1082 69.5184 57.8311 69.8143 57.631 70.1608L52.2247 79.5213L36.768 40.7671L75.5217 56.2245L66.1595 61.6315C65.813 61.8315 65.5171 62.1085 65.2947 62.4412C65.0724 62.7739 64.9296 63.1532 64.8774 63.5499C64.8252 63.9466 64.865 64.35 64.9937 64.7289C65.1224 65.1077 65.3365 65.4519 65.6195 65.7347L81.7021 81.8167L77.8165 85.7027ZM21.451 21.7611C20.4319 20.7432 18.7809 20.7432 17.7613 21.7611C16.7425 22.7801 16.7425 24.4315 17.7613 25.4505L23.5577 31.2464C23.7998 31.4889 24.0874 31.6813 24.404 31.8124C24.7205 31.9435 25.0599 32.0108 25.4026 32.0104C25.7452 32.0107 26.0845 31.9434 26.401 31.8123C26.7176 31.6812 27.0051 31.4889 27.2472 31.2464C28.2657 30.2277 28.2657 28.576 27.2472 27.5573L21.451 21.7611ZM23.4151 39.7938C23.4151 38.3533 22.2468 37.1857 20.8062 37.1857H12.6089C11.1685 37.1857 10 38.3531 10 39.7938C10 41.2341 11.1683 42.4022 12.6089 42.4022H20.8062C22.2468 42.402 23.4151 41.2341 23.4151 39.7938ZM22.3577 47.8446L16.5607 53.6411C15.5417 54.6593 15.5417 56.3109 16.5607 57.3296C16.8027 57.5723 17.0902 57.7647 17.4068 57.8958C17.7233 58.0269 18.0627 58.0941 18.4053 58.0936C19.0727 58.0936 19.7401 57.8389 20.2494 57.3296L26.0466 51.5335C27.0654 50.515 27.0654 48.8631 26.0466 47.8446C25.0283 46.8262 23.3768 46.8262 22.3577 47.8446ZM35.7946 27.4144C37.235 27.4144 38.4032 26.2463 38.4032 24.8058V16.6084C38.4032 15.1682 37.2352 14 35.7946 14C34.354 14 33.1862 15.1679 33.1862 16.6084V24.806C33.1862 26.2463 34.3537 27.4144 35.7946 27.4144ZM45.6889 30.8094C46.0315 30.81 46.371 30.7428 46.6876 30.6118C47.0042 30.4807 47.2918 30.2883 47.5337 30.0457L53.3299 24.2498C54.349 23.231 54.349 21.5794 53.3299 20.5609C52.3113 19.5422 50.659 19.5422 49.641 20.5609L43.8445 26.3568C42.8257 27.3753 42.8257 29.0272 43.8445 30.0457C44.0865 30.2882 44.3739 30.4806 44.6905 30.6116C45.007 30.7427 45.3463 30.8099 45.6889 30.8094Z" fill="#646464"/>
</svg>
