<svg width="100" height="100" viewBox="0 0 100 100" fill="none" xmlns="http://www.w3.org/2000/svg">
<path d="M37.833 20.6584C37.7689 20.5473 37.7273 20.4247 37.7106 20.2976C37.6938 20.1704 37.7023 20.0412 37.7355 19.9173C37.7687 19.7935 37.826 19.6774 37.9041 19.5756C37.9822 19.4739 38.0795 19.3885 38.1906 19.3244L46.6494 14.4416C46.7605 14.3775 46.8831 14.3359 47.0102 14.3192C47.1374 14.3024 47.2666 14.3109 47.3905 14.3441C47.5143 14.3773 47.6305 14.4346 47.7322 14.5127C47.8339 14.5908 47.9193 14.6882 47.9834 14.7992C48.0475 14.9103 48.0891 15.0329 48.1059 15.16C48.1226 15.2872 48.1141 15.4164 48.0809 15.5402C48.0477 15.6641 47.9904 15.7802 47.9123 15.8819C47.8342 15.9836 47.7369 16.0689 47.6258 16.133L39.167 21.0158C39.0559 21.08 38.9333 21.1217 38.8062 21.1384C38.679 21.1552 38.5498 21.1467 38.4259 21.1135C38.302 21.0803 38.1859 21.0231 38.0842 20.945C37.9824 20.8669 37.8971 20.7695 37.833 20.6584ZM31.3133 15.6547C31.5635 15.7216 31.83 15.6864 32.0542 15.5569C32.2785 15.4274 32.4422 15.2142 32.5094 14.9641L34.0262 9.30313C34.0594 9.17926 34.0678 9.05006 34.0511 8.92292C34.0343 8.79578 33.9927 8.67318 33.9286 8.56212C33.8644 8.45107 33.7791 8.35374 33.6773 8.27569C33.5756 8.19764 33.4594 8.14039 33.3355 8.10723C33.2117 8.07401 33.0825 8.06551 32.9553 8.08222C32.8282 8.09894 32.7055 8.14055 32.5945 8.20466C32.4834 8.26878 32.386 8.35415 32.308 8.4559C32.2299 8.55765 32.1726 8.67378 32.1394 8.79766L30.6226 14.4586C30.5894 14.5825 30.581 14.7117 30.5977 14.8389C30.6145 14.966 30.6561 15.0886 30.7202 15.1997C30.7843 15.3108 30.8697 15.4081 30.9715 15.4862C31.0732 15.5643 31.1894 15.6215 31.3133 15.6547ZM21.8268 16.3693C21.8908 16.4805 21.9762 16.5779 22.0779 16.656C22.1796 16.7341 22.2958 16.7914 22.4197 16.8246C22.5435 16.8578 22.6728 16.8662 22.7999 16.8494C22.9271 16.8326 23.0497 16.791 23.1607 16.7268C23.2718 16.6627 23.3692 16.5773 23.4473 16.4756C23.5253 16.3738 23.5826 16.2577 23.6158 16.1338C23.649 16.0099 23.6574 15.8807 23.6407 15.7536C23.6239 15.6264 23.5823 15.5038 23.5182 15.3928L18.6353 6.93555C18.5049 6.71309 18.2918 6.55124 18.0425 6.48532C17.7932 6.41941 17.5279 6.45478 17.3046 6.58372C17.0813 6.71267 16.918 6.92471 16.8504 7.17358C16.7829 7.42245 16.8165 7.68794 16.9439 7.91212L21.8268 16.3693ZM17.8941 31.0432L9.43769 35.926C9.25136 36.0335 9.10573 36.1995 9.02343 36.3982C8.94112 36.597 8.92673 36.8173 8.98251 37.0251C9.03828 37.2328 9.16109 37.4164 9.33187 37.5472C9.50265 37.678 9.71184 37.7487 9.92695 37.7484C10.0926 37.7484 10.2605 37.7063 10.4143 37.6174L18.8707 32.7346C18.9818 32.6705 19.0791 32.5851 19.1572 32.4833C19.2352 32.3816 19.2925 32.2655 19.3257 32.1416C19.3589 32.0177 19.3673 31.8885 19.3506 31.7614C19.3339 31.6343 19.2922 31.5117 19.2281 31.4006C19.164 31.2895 19.0786 31.1922 18.9769 31.1141C18.8751 31.0361 18.759 30.9788 18.6352 30.9456C18.5113 30.9124 18.3821 30.9039 18.2549 30.9207C18.1278 30.9374 18.0052 30.979 17.8941 31.0432ZM77.8734 90.0086C73.8105 92.3543 69.3004 93.5527 64.7318 93.5527C62.4414 93.5527 60.1375 93.2518 57.866 92.6432C51.0633 90.8205 45.3775 86.4574 41.8562 80.3578C38.5902 74.7012 20.5902 62.6604 20.4088 62.5395C20.229 62.4196 20.0941 62.2436 20.025 62.0389C19.4824 60.4289 19.6961 57.5502 20.7852 56.2518C23.9867 52.4424 29.4381 52.7051 35.742 56.9709C36.71 57.6265 37.6534 58.3179 38.5701 59.0436L21.7656 29.9361C20.7219 28.1293 20.4445 26.0238 20.9846 24.008C21.5246 21.9924 22.8178 20.3074 24.6254 19.2637C26.432 18.2199 28.5373 17.9428 30.5533 18.4834C32.5687 19.0238 34.2529 20.3168 35.2957 22.124L43.368 36.1057C43.8018 34.782 44.7049 33.607 46.0031 32.8578C47.8262 31.8057 49.8666 31.782 51.5445 32.632C51.5719 32.2603 51.6343 31.892 51.731 31.532C52.1361 30.0203 53.1057 28.757 54.4613 27.9748C55.8164 27.1922 57.3953 26.984 58.9072 27.3891C59.9914 27.6793 60.9476 28.26 61.6908 29.0652C62.0982 27.6649 63.024 26.4135 64.3834 25.6289C65.7389 24.8455 67.3183 24.6369 68.8307 25.0424C70.342 25.4475 71.6053 26.4174 72.3879 27.7733L87.5244 53.9906C94.7926 66.582 90.4631 82.7397 77.8734 90.0086ZM85.8328 54.9672L70.6961 28.7496C70.4409 28.3044 70.0999 27.9142 69.6929 27.6017C69.2858 27.2891 68.8208 27.0605 68.3248 26.9289C67.317 26.6584 66.264 26.7979 65.3598 27.3203C63.4951 28.3965 62.8541 30.7902 63.9305 32.6563C63.9332 32.6606 63.9355 32.6652 63.9381 32.6695L70.2779 43.6498C70.4054 43.874 70.439 44.1395 70.3714 44.3884C70.3039 44.6372 70.1406 44.8493 69.9173 44.9782C69.6939 45.1072 69.4287 45.1425 69.1794 45.0766C68.93 45.0107 68.7169 44.8488 68.5865 44.6264L60.774 31.0957C60.2521 30.1918 59.4098 29.5453 58.4017 29.2756C57.3937 29.0059 56.3414 29.1447 55.4377 29.6664C54.9925 29.9215 54.6024 30.2625 54.2899 30.6695C53.9775 31.0765 53.749 31.5415 53.6176 32.0375C53.4837 32.532 53.449 33.0482 53.5155 33.5561C53.5821 34.0641 53.7485 34.5539 54.0053 34.9973L54.0082 35.002L61.3324 47.6881C61.3966 47.7991 61.4382 47.9218 61.4549 48.0489C61.4717 48.176 61.4632 48.3053 61.43 48.4291C61.3969 48.553 61.3396 48.6691 61.2615 48.7709C61.1834 48.8726 61.0861 48.958 60.975 49.0221C60.7507 49.1516 60.4841 49.1867 60.234 49.1196C59.9838 49.0526 59.7705 48.8889 59.641 48.6647L52.3168 35.9785C51.185 34.0184 48.9404 33.417 46.9795 34.5494C45.1324 35.6152 44.4855 37.9731 45.5187 39.8307L52.3855 51.7242C52.4497 51.8353 52.4913 51.9579 52.5081 52.085C52.5248 52.2122 52.5164 52.3414 52.4832 52.4653C52.45 52.5891 52.3927 52.7053 52.3146 52.807C52.2366 52.9087 52.1392 52.9941 52.0281 53.0582C51.9171 53.1224 51.7945 53.1641 51.6673 53.1809C51.5402 53.1977 51.4109 53.1892 51.287 53.156C51.1632 53.1228 51.047 53.0655 50.9453 52.9874C50.8435 52.9093 50.7582 52.8119 50.6941 52.7008L43.8744 40.8887C43.856 40.8577 43.838 40.8264 43.8203 40.7949L33.6043 23.1C32.8223 21.7445 31.5594 20.775 30.0478 20.3697C28.5361 19.9641 26.9574 20.1721 25.6025 20.9549C24.2465 21.7377 23.2766 23.0016 22.8715 24.5133C22.4664 26.025 22.6744 27.6039 23.4572 28.9592L43.3662 63.4442C43.4852 63.6505 43.5246 63.8932 43.4771 64.1267C43.4295 64.3601 43.2984 64.5681 43.1082 64.7115C42.918 64.8549 42.682 64.9239 42.4445 64.9055C42.207 64.887 41.9845 64.7824 41.8187 64.6113C39.6418 62.3621 37.2386 60.3436 34.6473 58.5877C31.4873 56.4492 25.6785 53.4649 22.2814 57.5072C21.7771 58.1086 21.5471 59.967 21.7957 61.1172C24.2891 62.7961 40.2609 73.6879 43.5482 79.3811C46.8088 85.0291 52.0732 89.069 58.3721 90.7565C64.6703 92.444 71.2496 91.5778 76.8976 88.317C88.5541 81.5867 92.5627 66.6258 85.8328 54.9672ZM11.2982 22.4244L16.957 23.9404C17.2072 24.0073 17.4737 23.9722 17.698 23.8427C17.9223 23.7132 18.086 23.4999 18.1531 23.2498C18.1863 23.1259 18.1948 22.9967 18.178 22.8696C18.1613 22.7425 18.1197 22.6199 18.0555 22.5088C17.9914 22.3977 17.906 22.3004 17.8043 22.2224C17.7025 22.1443 17.5864 22.0871 17.4625 22.0539L11.8037 20.5379C11.6798 20.5047 11.5506 20.4962 11.4235 20.5129C11.2963 20.5296 11.1737 20.5712 11.0626 20.6353C10.9516 20.6994 10.8542 20.7848 10.7761 20.8866C10.6981 20.9883 10.6408 21.1044 10.6076 21.2283C10.5407 21.4785 10.5758 21.7451 10.7053 21.9693C10.8348 22.1936 11.0481 22.3573 11.2982 22.4244Z" fill="white"/>
</svg>
