<svg width="102" height="110" viewBox="0 0 102 110" fill="none" xmlns="http://www.w3.org/2000/svg">
<path fill-rule="evenodd" clip-rule="evenodd" d="M1.44517 31.7304L2.59813 30.5637L3.79815 30.01L5.64525 30.4648L5.18641 28.3093L7.65705 25.4024L9.55121 26.1539L9.72768 24.9476L14.0219 25.4222L14.8454 21.6452L17.7161 21.5463L20.0926 22.8712L19.7396 21.131L20.0455 19.3512L19.7749 17.9868L28.281 19.0744L27.6927 23.5238L28.5045 24.3939L28.8928 25.877L30.3045 25.8967L31.5399 28.0918L31.5045 32.0863L38.9047 31.0185L39.6929 29.3969L41.1635 29.0015L44.6224 28.3884L45.5872 27.6567L46.1636 26.0945L46.6813 23.1678L48.5754 21.8033L48.646 20.2213L47.493 18.5207L47.6695 17.3342L48.9048 17.6308L50.0931 19.3315L51.6578 19.3512L52.6343 17.7297L54.1638 16.642L55.7756 15.4555L56.8109 13.1419L58.5638 11.9554L58.7521 9.64171L62.8345 6.41838L60.8698 3.45213L61.5757 1L63.964 1.27685L68.1523 7.30824L66.0463 10.8875L64.611 11.9356L64.5875 15.8708L64.7287 18.8371L68.9287 22.8712L70.2699 22.2384L71.9523 23.939H71.9759L72.6582 25.0267L74.7759 24.7498L75.4348 22.97L77.2818 24.2159L76.8936 25.9956L78.776 25.521L79.0819 24.117L82.882 24.2554L83.482 26.4702L84.729 28.2698L89.2468 30.2077L87.1291 38.2364L87.1644 40.2139L86.5762 41.6179L87.5527 43.2592L86.6821 44.4457L86.835 46.0079L87.3644 48.2425L89.8233 47.6888L92.0469 46.7198L94.0587 49.3696L95.7999 50.5562L96.9058 51.5449L98.2941 51.5845L99.8 51.7229L99.7058 53.9179L91.6939 56.4689L88.1409 58.2684L90.8115 61.037L97.2823 75.1958L96.1646 76.5406L96.8234 77.6875L95.7881 81.1679L96.4234 82.0973L98.3999 82.8883L98.9764 84.1935L101 86.4083L94.3528 87.0015L92.2704 84.1935L89.5409 86.7444L90.4586 89.3943L87.1409 89.948L86.7644 93.0724L78.4819 97.858L76.3054 95.6432L72.8347 97.5218L71.2935 94.6347L71.8347 94.2392L70.2935 90.561L69.5053 90.7786L62.2934 96.4144L52.5167 95.0895L52.3991 93.903L52.1873 91.708L50.7637 90.1853L50.399 87.3575L43.9048 86.9818L41.0577 92.4594L41.1282 98.1744L38.0694 98.0558L37.2576 97.4625L34.2222 96.9088L30.8927 98.649L28.9162 94.9906L25.8927 95.1686L23.975 97.4032L21.6949 101.417L21.9773 101.635L22.4361 102.189L21.4831 104.008L21.2949 104.898L20.989 105.847L21.4126 106.045L22.682 107.271L22.4585 108.438L21.9055 108.734L21.4349 108.763L21.0349 108.387L20.3525 109L19.3878 108.486L19.1408 108.782L18.6937 108.525L18.2584 108.412L18.366 108.708L17.8601 108.313L17.1425 107.937L17.2573 107.621L17.1044 107.403L17.9279 106.632L18.2573 106.157L17.0632 105.287L16.4749 104.832L15.969 104.338L16.0483 104.233L16.2013 103.957L16.013 103.869L16.3189 103.474L16.4012 103.439L16.6012 103.201L16.8482 102.925L17.0482 102.648L17.0653 102.66L17.1062 102.583L17.2474 102.648L17.4121 102.774L17.9768 101.884L17.9411 101.824L18.0201 101.742L18.1178 101.824L18.4473 101.389L18.6237 101.232L19.0943 100.896L19.1298 100.779L18.5769 99.691L17.718 95.0636L9.60022 93.6596L9.67078 90.5352L8.11782 89.843L8.56488 86.5208L10.1296 86.9756L12.7061 83.3172L10.9414 81.9923L12.612 80.2719L13.212 76.6135L6.74132 72.5004L7.20014 70.7206L9.1649 66.5876L11.1296 62.6919L13.3414 61.8218L11.1649 61.0704L9.5296 61.545L8.17664 59.6268L4.27068 57.2934L5.32952 53.3384L8.35311 53.813L11.6591 49.1461L10.6708 42.4819L6.87073 41.4932L6.8354 35.5804L5.75303 35.0267L6.11775 33.6425L6.95306 33.3854L6.0001 32.1198L4.09418 32.7724L3.9177 35.5409L1.92942 33.7216L1 32.9899L1.44707 31.7243" fill="#2E2F31"/>
<path d="M1.44517 31.7304L2.59813 30.5637L3.79815 30.01L5.64525 30.4648L5.18641 28.3093L7.65705 25.4024L9.55121 26.1539L9.72768 24.9476L14.0219 25.4222L14.8454 21.6452L17.7161 21.5463L20.0926 22.8712L19.7396 21.131L20.0455 19.3512L19.7749 17.9868L28.281 19.0744L27.6927 23.5238L28.5045 24.3939L28.8928 25.877L30.3045 25.8967L31.5399 28.0918L31.5045 32.0863L38.9047 31.0185L39.6929 29.3969L41.1635 29.0015L44.6224 28.3884L45.5872 27.6567L46.1636 26.0945L46.6813 23.1678L48.5754 21.8033L48.646 20.2213L47.4931 18.5207L47.6695 17.3342L48.9048 17.6308L50.0931 19.3315L51.6578 19.3512L52.6343 17.7297L54.1638 16.642L55.7756 15.4555L56.8109 13.1419L58.5638 11.9554L58.7521 9.64171L62.8345 6.41838L60.8698 3.45213L61.5757 1L63.964 1.27685L68.1523 7.30824L66.0463 10.8875L64.611 11.9356L64.5875 15.8708L64.7287 18.8371L68.9287 22.8712L70.2699 22.2384L71.9523 23.939H71.9759L72.6582 25.0267L74.7759 24.7498L75.4348 22.97L77.2818 24.2159L76.8936 25.9956L78.776 25.521L79.0819 24.117L82.882 24.2554L83.482 26.4702L84.729 28.2698L89.2468 30.2077L87.1291 38.2364L87.1644 40.2139L86.5762 41.6179L87.5527 43.2592L86.6821 44.4457L86.835 46.0079L87.3644 48.2425L89.8233 47.6888L92.0469 46.7198L94.0587 49.3696L95.7999 50.5562L96.9058 51.5449L98.2941 51.5845L99.8 51.7229L99.7058 53.9179L91.6939 56.4689L88.1409 58.2684L90.8115 61.037L97.2823 75.1958L96.1646 76.5406L96.8234 77.6875L95.7881 81.1679L96.4234 82.0973L98.3999 82.8883L98.9764 84.1935L101 86.4083L94.3528 87.0015L92.2704 84.1935L89.5409 86.7444L90.4586 89.3943L87.1409 89.948L86.7644 93.0724L78.4819 97.858L76.3054 95.6432L72.8347 97.5218L71.2935 94.6347L71.8347 94.2392L70.2935 90.561L69.5053 90.7786L62.2934 96.4144L52.5167 95.0895L52.3991 93.903L52.1873 91.708L50.7637 90.1853L50.399 87.3575L43.9048 86.9818L41.0577 92.4594L41.1282 98.1744L38.0694 98.0558L37.2576 97.4625L34.2222 96.9088L30.8927 98.649L28.9162 94.9906L25.8927 95.1686L23.975 97.4032L21.6949 101.417L21.9773 101.635L22.4361 102.189L21.4831 104.008L21.2949 104.898L20.989 105.847L21.4126 106.045L22.682 107.271L22.4585 108.438L21.9055 108.734L21.4349 108.763L21.0349 108.387L20.3525 109L19.3878 108.486L19.1408 108.782L18.6937 108.525L18.2584 108.412L18.366 108.708L17.8601 108.313L17.1425 107.937L17.2573 107.621L17.1044 107.403L17.9279 106.632L18.2573 106.157L17.0632 105.287L16.4749 104.832L15.969 104.338L16.0483 104.233L16.2013 103.957L16.013 103.869L16.3189 103.474L16.4012 103.439L16.6012 103.201L16.8482 102.925L17.0482 102.648L17.0653 102.66L17.1062 102.583L17.2474 102.648L17.4121 102.774L17.9768 101.884L17.9411 101.824L18.0201 101.742L18.1178 101.824L18.4473 101.389L18.6237 101.232L19.0943 100.896L19.1298 100.779L18.5769 99.691L17.718 95.0636L9.60022 93.6596L9.67078 90.5352L8.11782 89.843L8.56488 86.5208L10.1296 86.9756L12.7061 83.3172L10.9414 81.9923L12.612 80.2719L13.212 76.6135L6.74132 72.5004L7.20014 70.7206L9.1649 66.5876L11.1296 62.6919L13.3414 61.8218L11.1649 61.0704L9.5296 61.545L8.17664 59.6268L4.27068 57.2934L5.32952 53.3384L8.35311 53.813L11.6591 49.1461L10.6708 42.4819L6.87073 41.4932L6.8354 35.5804L5.75303 35.0267L6.11775 33.6425L6.95306 33.3854L6.0001 32.1198L4.09418 32.7724L3.9177 35.5409L1.92942 33.7216L1 32.9899L1.44707 31.7243" stroke="#646464" stroke-linecap="round" stroke-linejoin="round"/>
</svg>
