<svg width="100" height="108" viewBox="0 0 100 108" fill="none" xmlns="http://www.w3.org/2000/svg">
<path fill-rule="evenodd" clip-rule="evenodd" d="M1.43627 31.1613L2.56617 30.0162L3.74219 29.4728L5.55235 29.9192L5.10269 27.8036L7.52391 24.9505L9.38019 25.6881L9.55313 24.5041L13.7614 24.9699L14.5685 21.2629L17.3817 21.1658L19.7107 22.4662L19.3648 20.7582L19.6646 19.0114L19.3994 17.6722L27.7353 18.7397L27.1589 23.1067L27.9544 23.9607L28.3349 25.4163L29.7185 25.4357L30.9291 27.5901L30.8944 31.5107L38.1466 30.4626L38.9191 28.8711L40.3603 28.4829L43.75 27.8812L44.6954 27.1631L45.2604 25.6298L45.7677 22.7573L47.6239 21.4181L47.6931 19.8654L46.5632 18.1962L46.7361 17.0317L47.9467 17.3228L49.1112 18.992L50.6447 19.0114L51.6016 17.4199L53.1005 16.3524L54.68 15.1879L55.6947 12.917L57.4126 11.7525L57.597 9.48168L61.5978 6.31804L59.6724 3.40672L60.3642 1L62.7047 1.27172L66.8092 7.19142L64.7454 10.7044L63.3388 11.7331L63.3157 15.5954L63.4541 18.5068L67.5702 22.4662L68.8845 21.8451L70.5333 23.5142H70.5564L71.2251 24.5817L73.3004 24.31L73.9461 22.5632L75.7562 23.7859L75.3757 25.5328L77.2205 25.0669L77.5202 23.6889L81.2443 23.8247L81.8323 25.9985L83.0545 27.7648L87.4818 29.6668L85.4065 37.5468L85.4411 39.4877L84.8646 40.8657L85.8216 42.4766L84.9684 43.6412L85.1183 45.1745L85.6371 47.3677L88.0468 46.8242L90.2259 45.8732L92.1975 48.4739L93.9039 49.6385L94.9877 50.6089L96.3482 50.6478L97.824 50.7836L97.7317 52.938L89.8801 55.4417L86.3981 57.2079L89.0153 59.9252L95.3566 73.8218L94.2613 75.1417L94.907 76.2674L93.8923 79.6833L94.515 80.5955L96.4519 81.3719L97.0169 82.6528L99 84.8266L92.4857 85.4089L90.445 82.6528L87.7701 85.1566L88.6694 87.7574L85.4181 88.3008L85.0491 91.3674L76.9323 96.0643L74.7993 93.8905L71.398 95.7344L69.8877 92.9007L70.418 92.5125L68.9076 88.9025L68.1352 89.116L61.0675 94.6475L51.4864 93.3471L51.3711 92.1826L51.1635 90.0282L49.7685 88.5337L49.411 85.7583L43.0467 85.3895L40.2565 90.7657L40.3257 96.3749L37.328 96.2584L36.5324 95.6761L33.5578 95.1327L30.2949 96.8407L28.3579 93.2501L25.3948 93.4247L23.5155 95.6179L21.281 99.5579L21.5577 99.7714L22.0074 100.315L21.0735 102.1L20.889 102.974L20.5892 103.905L21.0043 104.1L22.2484 105.303L22.0293 106.448L21.4874 106.739L21.0262 106.767L20.6342 106.398L19.9655 107L19.0201 106.495L18.7779 106.786L18.3398 106.534L17.9132 106.423L18.0187 106.714L17.5229 106.326L16.8196 105.957L16.9322 105.646L16.7823 105.433L17.5893 104.676L17.9122 104.21L16.7419 103.356L16.1654 102.91L15.6697 102.424L15.7474 102.322L15.8972 102.05L15.7128 101.964L16.0125 101.576L16.0932 101.542L16.2891 101.309L16.5313 101.037L16.7273 100.765L16.744 100.777L16.7841 100.701L16.9224 100.765L17.0838 100.889L17.6373 100.016L17.6023 99.9572L17.6797 99.8768L17.7755 99.9572L18.0983 99.5302L18.2713 99.3757L18.7324 99.0457L18.7672 98.9308L18.2253 97.8634L17.3837 93.3217L9.42822 91.9437L9.49737 88.8771L7.97546 88.1978L8.41358 84.9371L9.94703 85.3835L12.472 81.7928L10.7426 80.4925L12.3798 78.8039L12.9678 75.2133L6.62649 71.1763L7.07614 69.4295L9.0016 65.373L10.927 61.5495L13.0946 60.6955L10.9616 59.958L9.35901 60.4238L8.03311 58.5411L4.20527 56.2509L5.24293 52.3691L8.20605 52.8349L11.4459 48.2545L10.4774 41.7137L6.75331 40.7433L6.71869 34.94L5.65797 34.3966L6.01539 33.038L6.834 32.7857L5.9001 31.5435L4.0323 32.184L3.85935 34.9012L1.91083 33.1156L1 32.3975L1.43813 31.1554" fill="#1C52BB"/>
<path d="M1.43627 31.1613L2.56617 30.0162L3.74219 29.4728L5.55235 29.9192L5.10269 27.8036L7.52391 24.9505L9.38019 25.6881L9.55313 24.5041L13.7614 24.9699L14.5685 21.2629L17.3817 21.1658L19.7107 22.4662L19.3648 20.7582L19.6646 19.0114L19.3994 17.6722L27.7354 18.7397L27.1589 23.1067L27.9544 23.9607L28.3349 25.4163L29.7185 25.4357L30.9291 27.5901L30.8944 31.5106L38.1466 30.4626L38.9191 28.8711L40.3603 28.4829L43.75 27.8812L44.6954 27.1631L45.2604 25.6298L45.7677 22.7573L47.6239 21.4181L47.6931 19.8654L46.5632 18.1962L46.7361 17.0317L47.9467 17.3228L49.1112 18.992L50.6447 19.0114L51.6016 17.4199L53.1005 16.3524L54.68 15.1879L55.6947 12.917L57.4126 11.7525L57.597 9.48168L61.5978 6.31804L59.6724 3.40672L60.3642 1L62.7047 1.27172L66.8092 7.19142L64.7454 10.7044L63.3388 11.7331L63.3157 15.5954L63.4541 18.5068L67.5702 22.4662L68.8845 21.8451L70.5333 23.5142H70.5563L71.2251 24.5817L73.3004 24.31L73.9461 22.5632L75.7562 23.7859L75.3757 25.5328L77.2205 25.0669L77.5202 23.6889L81.2443 23.8247L81.8323 25.9985L83.0545 27.7648L87.4818 29.6668L85.4065 37.5468L85.4411 39.4877L84.8646 40.8657L85.8216 42.4766L84.9684 43.6412L85.1183 45.1745L85.6371 47.3677L88.0468 46.8242L90.2259 45.8732L92.1975 48.4739L93.9039 49.6385L94.9877 50.6089L96.3482 50.6478L97.824 50.7836L97.7317 52.938L89.8801 55.4417L86.3981 57.2079L89.0153 59.9252L95.3566 73.8218L94.2613 75.1417L94.907 76.2674L93.8924 79.6833L94.515 80.5955L96.4519 81.3719L97.0169 82.6528L99 84.8266L92.4858 85.4089L90.445 82.6528L87.7701 85.1566L88.6694 87.7574L85.4181 88.3008L85.0491 91.3674L76.9323 96.0643L74.7993 93.8905L71.398 95.7344L69.8877 92.9007L70.418 92.5125L68.9076 88.9025L68.1352 89.116L61.0675 94.6475L51.4864 93.3471L51.3711 92.1826L51.1635 90.0282L49.7685 88.5337L49.411 85.7583L43.0467 85.3895L40.2565 90.7657L40.3257 96.3749L37.328 96.2584L36.5324 95.6761L33.5578 95.1327L30.2949 96.8407L28.3579 93.2501L25.3948 93.4247L23.5155 95.6179L21.281 99.5579L21.5577 99.7714L22.0074 100.315L21.0735 102.1L20.889 102.974L20.5892 103.905L21.0043 104.1L22.2484 105.303L22.0293 106.448L21.4874 106.739L21.0262 106.767L20.6342 106.398L19.9655 107L19.0201 106.495L18.7779 106.786L18.3398 106.534L17.9132 106.423L18.0187 106.714L17.5229 106.326L16.8196 105.957L16.9322 105.646L16.7823 105.433L17.5893 104.676L17.9122 104.21L16.7419 103.356L16.1654 102.91L15.6697 102.424L15.7474 102.322L15.8972 102.05L15.7128 101.964L16.0125 101.576L16.0932 101.542L16.2891 101.309L16.5313 101.037L16.7273 100.765L16.744 100.777L16.7841 100.701L16.9224 100.765L17.0838 100.889L17.6373 100.016L17.6023 99.9572L17.6797 99.8768L17.7755 99.9572L18.0983 99.5302L18.2713 99.3757L18.7324 99.0457L18.7672 98.9308L18.2253 97.8634L17.3837 93.3217L9.42822 91.9437L9.49737 88.8771L7.97546 88.1978L8.41358 84.9371L9.94703 85.3835L12.472 81.7928L10.7426 80.4925L12.3798 78.8039L12.9678 75.2133L6.62649 71.1763L7.07614 69.4295L9.0016 65.373L10.927 61.5495L13.0946 60.6955L10.9616 59.958L9.35901 60.4238L8.03311 58.5411L4.20527 56.2509L5.24293 52.3691L8.20605 52.8349L11.4459 48.2545L10.4774 41.7137L6.75331 40.7433L6.71869 34.94L5.65797 34.3966L6.01539 33.038L6.834 32.7857L5.9001 31.5435L4.0323 32.184L3.85935 34.9012L1.91083 33.1156L1 32.3975L1.43813 31.1554" stroke="#646464" stroke-linecap="round" stroke-linejoin="round"/>
</svg>
