<svg width="100" height="100" viewBox="0 0 100 100" fill="none" xmlns="http://www.w3.org/2000/svg">
<path d="M37.8331 20.6584C37.769 20.5473 37.7274 20.4247 37.7107 20.2976C37.6939 20.1704 37.7024 20.0412 37.7356 19.9173C37.7688 19.7935 37.8261 19.6774 37.9042 19.5756C37.9823 19.4739 38.0797 19.3885 38.1907 19.3244L46.6495 14.4416C46.7606 14.3775 46.8832 14.3359 47.0103 14.3192C47.1375 14.3024 47.2667 14.3109 47.3906 14.3441C47.5144 14.3773 47.6306 14.4346 47.7323 14.5127C47.834 14.5908 47.9194 14.6882 47.9835 14.7992C48.0476 14.9103 48.0893 15.0329 48.106 15.16C48.1227 15.2872 48.1142 15.4164 48.081 15.5402C48.0478 15.6641 47.9905 15.7802 47.9124 15.8819C47.8343 15.9836 47.737 16.0689 47.6259 16.133L39.1671 21.0158C39.056 21.08 38.9334 21.1217 38.8063 21.1384C38.6791 21.1552 38.5499 21.1467 38.426 21.1135C38.3022 21.0803 38.186 21.0231 38.0843 20.945C37.9825 20.8669 37.8972 20.7695 37.8331 20.6584ZM31.3134 15.6547C31.5636 15.7216 31.8301 15.6864 32.0544 15.5569C32.2786 15.4274 32.4423 15.2142 32.5095 14.9641L34.0263 9.30313C34.0595 9.17926 34.0679 9.05006 34.0512 8.92292C34.0345 8.79578 33.9928 8.67318 33.9287 8.56212C33.8646 8.45107 33.7792 8.35374 33.6774 8.27569C33.5757 8.19764 33.4595 8.14039 33.3356 8.10723C33.2118 8.07401 33.0826 8.06551 32.9554 8.08222C32.8283 8.09894 32.7056 8.14055 32.5946 8.20466C32.4835 8.26878 32.3861 8.35415 32.3081 8.4559C32.23 8.55765 32.1727 8.67378 32.1396 8.79766L30.6228 14.4586C30.5896 14.5825 30.5811 14.7117 30.5978 14.8389C30.6146 14.966 30.6562 15.0886 30.7203 15.1997C30.7845 15.3108 30.8698 15.4081 30.9716 15.4862C31.0734 15.5643 31.1895 15.6215 31.3134 15.6547ZM21.8269 16.3693C21.8909 16.4805 21.9763 16.5779 22.078 16.656C22.1797 16.7341 22.2959 16.7914 22.4198 16.8246C22.5437 16.8578 22.6729 16.8662 22.8 16.8494C22.9272 16.8326 23.0498 16.791 23.1608 16.7268C23.2719 16.6627 23.3693 16.5773 23.4474 16.4756C23.5254 16.3738 23.5827 16.2577 23.6159 16.1338C23.6491 16.0099 23.6576 15.8807 23.6408 15.7536C23.624 15.6264 23.5824 15.5038 23.5183 15.3928L18.6355 6.93555C18.505 6.71309 18.2919 6.55124 18.0426 6.48532C17.7933 6.41941 17.528 6.45478 17.3047 6.58372C17.0814 6.71267 16.9181 6.92471 16.8505 7.17358C16.783 7.42245 16.8166 7.68794 16.944 7.91212L21.8269 16.3693ZM17.8942 31.0432L9.4378 35.926C9.25147 36.0335 9.10584 36.1995 9.02353 36.3982C8.94122 36.597 8.92684 36.8173 8.98262 37.0251C9.03839 37.2328 9.1612 37.4164 9.33198 37.5472C9.50276 37.678 9.71194 37.7487 9.92706 37.7484C10.0927 37.7484 10.2606 37.7063 10.4144 37.6174L18.8708 32.7346C18.9819 32.6705 19.0792 32.5851 19.1573 32.4833C19.2353 32.3816 19.2926 32.2655 19.3258 32.1416C19.359 32.0177 19.3674 31.8885 19.3507 31.7614C19.334 31.6343 19.2923 31.5117 19.2282 31.4006C19.1641 31.2895 19.0787 31.1922 18.977 31.1141C18.8753 31.0361 18.7591 30.9788 18.6353 30.9456C18.5114 30.9124 18.3822 30.9039 18.255 30.9207C18.1279 30.9374 18.0053 30.979 17.8942 31.0432ZM77.8735 90.0086C73.8106 92.3543 69.3005 93.5527 64.7319 93.5527C62.4415 93.5527 60.1376 93.2518 57.8661 92.6432C51.0634 90.8205 45.3776 86.4574 41.8563 80.3578C38.5903 74.7012 20.5903 62.6604 20.4089 62.5395C20.2291 62.4196 20.0942 62.2436 20.0251 62.0389C19.4825 60.4289 19.6962 57.5502 20.7853 56.2518C23.9868 52.4424 29.4382 52.7051 35.7421 56.9709C36.7101 57.6265 37.6535 58.3179 38.5702 59.0436L21.7657 29.9361C20.722 28.1293 20.4446 26.0238 20.9847 24.008C21.5247 21.9924 22.8179 20.3074 24.6255 19.2637C26.4321 18.2199 28.5374 17.9428 30.5534 18.4834C32.5688 19.0238 34.253 20.3168 35.2958 22.124L43.3681 36.1057C43.8019 34.782 44.705 33.607 46.0032 32.8578C47.8263 31.8057 49.8667 31.782 51.5446 32.632C51.572 32.2603 51.6344 31.892 51.7312 31.532C52.1362 30.0203 53.1058 28.757 54.4614 27.9748C55.8165 27.1922 57.3954 26.984 58.9073 27.3891C59.9915 27.6793 60.9478 28.26 61.6909 29.0652C62.0983 27.6649 63.0241 26.4135 64.3835 25.6289C65.739 24.8455 67.3185 24.6369 68.8308 25.0424C70.3421 25.4475 71.6054 26.4174 72.388 27.7733L87.5245 53.9906C94.7927 66.582 90.4632 82.7397 77.8735 90.0086ZM85.8329 54.9672L70.6962 28.7496C70.441 28.3044 70.1 27.9142 69.693 27.6017C69.2859 27.2891 68.8209 27.0605 68.3249 26.9289C67.3171 26.6584 66.2642 26.7979 65.3599 27.3203C63.4952 28.3965 62.8542 30.7902 63.9306 32.6563C63.9333 32.6606 63.9356 32.6652 63.9382 32.6695L70.278 43.6498C70.4055 43.874 70.4391 44.1395 70.3715 44.3884C70.304 44.6372 70.1407 44.8493 69.9174 44.9782C69.694 45.1072 69.4288 45.1425 69.1795 45.0766C68.9302 45.0107 68.717 44.8488 68.5866 44.6264L60.7741 31.0957C60.2522 30.1918 59.4099 29.5453 58.4019 29.2756C57.3938 29.0059 56.3415 29.1447 55.4378 29.6664C54.9926 29.9215 54.6025 30.2625 54.29 30.6695C53.9776 31.0765 53.7491 31.5415 53.6177 32.0375C53.4838 32.532 53.4491 33.0482 53.5156 33.5561C53.5822 34.0641 53.7486 34.5539 54.0054 34.9973L54.0083 35.002L61.3325 47.6881C61.3967 47.7991 61.4383 47.9218 61.4551 48.0489C61.4718 48.176 61.4633 48.3053 61.4301 48.4291C61.397 48.553 61.3397 48.6691 61.2616 48.7709C61.1835 48.8726 61.0862 48.958 60.9751 49.0221C60.7508 49.1516 60.4843 49.1867 60.2341 49.1196C59.9839 49.0526 59.7706 48.8889 59.6411 48.6647L52.3169 35.9785C51.1851 34.0184 48.9405 33.417 46.9796 34.5494C45.1325 35.6152 44.4856 37.9731 45.5188 39.8307L52.3856 51.7242C52.4498 51.8353 52.4914 51.9579 52.5082 52.085C52.5249 52.2122 52.5165 52.3414 52.4833 52.4653C52.4501 52.5891 52.3928 52.7053 52.3147 52.807C52.2367 52.9087 52.1393 52.9941 52.0282 53.0582C51.9172 53.1224 51.7946 53.1641 51.6674 53.1809C51.5403 53.1977 51.411 53.1892 51.2871 53.156C51.1633 53.1228 51.0471 53.0655 50.9454 52.9874C50.8437 52.9093 50.7583 52.8119 50.6942 52.7008L43.8745 40.8887C43.8561 40.8577 43.8381 40.8264 43.8204 40.7949L33.6044 23.1C32.8224 21.7445 31.5595 20.775 30.048 20.3697C28.5362 19.9641 26.9575 20.1721 25.6026 20.9549C24.2466 21.7377 23.2767 23.0016 22.8716 24.5133C22.4665 26.025 22.6745 27.6039 23.4573 28.9592L43.3663 63.4442C43.4853 63.6505 43.5247 63.8932 43.4772 64.1267C43.4296 64.3601 43.2985 64.5681 43.1083 64.7115C42.9181 64.8549 42.6821 64.9239 42.4446 64.9055C42.2071 64.887 41.9846 64.7824 41.8189 64.6113C39.6419 62.3621 37.2387 60.3436 34.6474 58.5877C31.4874 56.4492 25.6786 53.4649 22.2815 57.5072C21.7772 58.1086 21.5472 59.967 21.7958 61.1172C24.2892 62.7961 40.261 73.6879 43.5483 79.3811C46.8089 85.0291 52.0733 89.069 58.3722 90.7565C64.6704 92.444 71.2497 91.5778 76.8978 88.317C88.5542 81.5867 92.5628 66.6258 85.8329 54.9672ZM11.2983 22.4244L16.9571 23.9404C17.2073 24.0073 17.4738 23.9722 17.6981 23.8427C17.9224 23.7132 18.0861 23.4999 18.1532 23.2498C18.1864 23.1259 18.1949 22.9967 18.1781 22.8696C18.1614 22.7425 18.1198 22.6199 18.0556 22.5088C17.9915 22.3977 17.9061 22.3004 17.8044 22.2224C17.7026 22.1443 17.5865 22.0871 17.4626 22.0539L11.8038 20.5379C11.6799 20.5047 11.5507 20.4962 11.4236 20.5129C11.2964 20.5296 11.1738 20.5712 11.0627 20.6353C10.9517 20.6994 10.8543 20.7848 10.7762 20.8866C10.6982 20.9883 10.6409 21.1044 10.6077 21.2283C10.5408 21.4785 10.5759 21.7451 10.7054 21.9693C10.8349 22.1936 11.0482 22.3573 11.2983 22.4244Z" fill="#110A06"/>
</svg>
